<?xml version="1.0" standalone="no"?>
<!DOCTYPE svg PUBLIC "-//W3C//DTD SVG 20010904//EN"
 "http://www.w3.org/TR/2001/REC-SVG-20010904/DTD/svg10.dtd">
<svg version="1.0" xmlns="http://www.w3.org/2000/svg"
 width="1568.000000pt" height="1568.000000pt" viewBox="0 0 1568.000000 1568.000000"
 preserveAspectRatio="xMidYMid meet">
<metadata>
Created by potrace 1.14, written by Peter Selinger 2001-2017
</metadata>
<g transform="translate(0.000000,1568.000000) scale(0.100000,-0.100000)"
fill="#000000" stroke="none">
<path d="M3697 11534 c-1 -1 -65 -5 -142 -8 -77 -3 -155 -8 -173 -11 -17 -2
-58 -6 -90 -9 -64 -7 -116 -14 -152 -22 -14 -3 -39 -7 -57 -10 -18 -2 -60 -11
-95 -19 -35 -8 -77 -17 -95 -20 -17 -3 -87 -21 -155 -41 -68 -20 -132 -38
-143 -41 -11 -3 -29 -8 -40 -13 -11 -4 -65 -25 -120 -45 -55 -21 -104 -42
-110 -46 -5 -5 -16 -9 -25 -9 -14 0 -262 -116 -300 -140 -8 -5 -49 -28 -90
-51 -41 -23 -113 -66 -160 -97 -47 -30 -86 -54 -88 -53 -1 1 -10 -5 -18 -14
-9 -8 -37 -29 -62 -47 -47 -31 -94 -67 -122 -91 -8 -7 -37 -31 -65 -53 -27
-21 -63 -50 -80 -64 -47 -40 -316 -310 -368 -370 -69 -81 -187 -231 -199 -255
-6 -11 -14 -22 -18 -25 -11 -9 -124 -180 -177 -270 -27 -47 -78 -143 -114
-215 -35 -71 -68 -133 -74 -137 -5 -4 -7 -8 -3 -8 4 0 -4 -26 -18 -57 -60
-135 -159 -424 -179 -523 -3 -13 -17 -73 -41 -175 -4 -16 -9 -39 -10 -50 -2
-11 -6 -31 -8 -45 -3 -14 -8 -43 -11 -64 -3 -22 -7 -51 -10 -65 -10 -60 -22
-167 -30 -291 -12 -169 -7 -475 11 -600 2 -14 6 -48 8 -77 3 -28 7 -64 10 -80
2 -15 8 -48 11 -73 4 -25 9 -54 11 -65 2 -11 6 -31 9 -45 10 -53 14 -72 19
-88 3 -9 7 -28 10 -42 15 -75 31 -135 78 -285 23 -71 45 -134 49 -139 5 -6 9
-17 9 -25 0 -9 23 -68 51 -131 27 -63 51 -119 53 -125 1 -5 8 -21 16 -35 8
-14 31 -59 52 -100 69 -138 121 -228 205 -354 29 -43 53 -81 53 -82 0 -2 6
-12 14 -21 8 -10 51 -65 95 -123 106 -137 162 -200 301 -340 119 -119 180
-176 264 -245 27 -22 57 -47 66 -55 9 -8 24 -19 32 -25 9 -5 60 -42 114 -81
153 -109 270 -181 444 -272 125 -66 368 -172 440 -193 25 -7 50 -16 55 -20 6
-4 22 -10 36 -12 13 -3 42 -12 63 -21 21 -9 42 -14 46 -11 5 3 11 1 14 -4 3
-5 23 -12 43 -16 21 -5 43 -10 48 -11 17 -5 139 -35 158 -39 10 -2 26 -6 35
-9 9 -3 35 -7 57 -11 22 -3 47 -7 55 -10 8 -2 34 -7 58 -10 106 -13 129 -16
152 -20 48 -9 185 -19 262 -19 43 -1 78 -3 78 -6 0 -3 34 -5 75 -5 41 0 75 2
75 5 0 3 42 5 93 6 50 0 126 4 167 7 160 14 176 16 205 22 17 3 46 8 65 11
241 32 632 146 883 258 18 8 59 26 92 40 33 15 69 32 80 38 11 6 49 27 85 46
336 178 629 396 900 672 89 90 126 130 205 223 28 34 102 127 120 152 11 15
34 46 50 69 17 23 43 61 60 86 16 25 32 47 35 50 3 3 12 17 20 32 8 15 37 64
64 110 108 181 230 443 291 623 15 44 31 89 35 100 8 19 20 56 26 80 2 6 14
52 28 102 14 51 28 103 30 115 3 13 7 34 10 48 21 98 31 148 41 210 3 25 9 58
11 74 5 30 11 82 19 166 3 25 6 87 8 138 2 51 7 95 10 98 3 4 2 14 -3 24 -5
10 -6 20 -3 24 7 7 6 130 -3 286 -7 122 -14 188 -39 357 -2 15 -6 37 -8 48 -3
11 -8 40 -12 65 -4 25 -9 52 -11 60 -2 8 -10 44 -19 80 -9 36 -17 74 -20 85
-10 53 -82 284 -105 340 -5 11 -30 74 -56 140 -53 135 -198 429 -224 455 -3 3
-14 21 -24 40 -48 88 -209 321 -276 400 -8 10 -31 38 -50 62 -102 126 -317
342 -460 462 -52 44 -100 85 -106 93 -6 7 -15 13 -20 13 -6 0 -25 13 -44 30
-19 16 -40 29 -45 30 -6 0 -17 9 -25 20 -8 11 -18 20 -22 20 -7 0 -96 58 -108
70 -6 6 -8 7 -145 87 -131 77 -339 183 -359 183 -9 0 -16 5 -16 10 0 6 -6 10
-13 10 -12 0 -136 49 -182 71 -12 6 -27 11 -35 13 -8 2 -22 6 -30 9 -83 32
-334 104 -420 121 -14 2 -50 10 -80 16 -30 6 -64 13 -75 15 -11 1 -33 5 -50 8
-46 9 -145 22 -250 33 -76 8 -383 22 -388 18z"/>
<path d="M11620 9352 c-6 -2 -10 -95 -10 -252 l0 -249 995 0 c547 0 999 -2
1005 -6 6 -4 10 6 11 22 1 33 1 476 0 483 -1 5 -1985 7 -2001 2z"/>
<path d="M14641 9262 c-8 -3 -11 -146 -12 -490 0 -461 -1 -486 -17 -463 -63
91 -183 165 -297 185 -16 3 -41 8 -55 11 -27 6 -160 7 -200 1 -118 -17 -167
-32 -269 -84 -51 -26 -177 -127 -212 -169 -59 -72 -149 -232 -149 -264 0 -8
-5 -20 -12 -27 -7 -7 -9 -12 -5 -12 4 0 3 -8 -2 -19 -6 -10 -13 -31 -15 -47
-3 -16 -9 -47 -13 -69 -9 -47 -9 -274 0 -325 4 -19 8 -46 11 -60 9 -54 49
-166 83 -229 55 -104 129 -192 230 -272 59 -47 217 -112 306 -127 82 -13 307
-5 307 11 0 4 7 7 16 7 59 0 226 108 266 173 27 44 34 46 35 10 2 -50 14 -157
19 -164 2 -4 86 -6 187 -6 l182 2 -4 25 c-2 14 -5 522 -8 1130 -2 608 -4 1143
-6 1190 l-2 85 -177 0 c-97 0 -181 -1 -187 -3z m-341 -1107 c151 -28 284 -170
316 -339 2 -11 7 -34 10 -51 11 -49 5 -200 -11 -267 -32 -137 -123 -266 -224
-318 -93 -47 -211 -56 -331 -25 -3 0 -27 11 -53 24 -123 57 -230 229 -239 384
-2 26 -7 47 -11 47 -5 0 -6 4 -2 10 3 5 7 44 10 87 6 122 49 237 121 322 48
57 152 115 229 128 17 3 31 6 32 7 5 4 117 -3 153 -9z"/>
<path d="M8330 8509 c-19 -3 -51 -9 -70 -13 -41 -8 -159 -54 -180 -70 -8 -7
-27 -18 -43 -26 -36 -18 -147 -122 -147 -138 0 -6 -4 -12 -9 -12 -16 0 -95
-167 -92 -197 0 -2 -4 -16 -9 -33 -7 -25 -5 -32 11 -40 10 -6 19 -9 19 -6 0 3
15 0 33 -5 17 -6 47 -12 66 -15 19 -2 37 -7 41 -9 4 -3 25 -7 46 -11 20 -3 48
-10 61 -15 13 -5 23 -6 23 -4 0 2 11 0 24 -5 22 -8 25 -6 31 26 15 82 94 204
132 204 7 0 13 4 13 9 0 4 21 17 48 27 70 28 229 26 297 -5 89 -39 139 -105
148 -193 10 -94 -40 -139 -168 -152 -11 -2 -45 -6 -75 -11 -30 -4 -64 -9 -75
-11 -11 -1 -20 -3 -20 -4 0 -1 -16 -3 -36 -5 -20 -1 -45 -5 -55 -9 -10 -3 -41
-8 -69 -11 -126 -16 -232 -49 -320 -102 -16 -10 -55 -43 -85 -73 -93 -93 -131
-196 -126 -339 3 -97 22 -157 73 -239 71 -112 195 -196 339 -227 57 -13 206
-12 274 1 73 14 203 69 233 98 9 10 17 15 17 12 0 -5 32 29 103 109 18 19 18
19 17 -15 -2 -41 9 -150 15 -160 3 -4 86 -8 185 -8 179 0 180 0 175 22 -3 11
-7 46 -9 76 -3 30 -5 55 -6 55 -1 0 -2 225 -2 500 -1 483 -3 527 -32 640 -6
24 -57 126 -73 146 -103 131 -249 212 -423 236 -52 7 -267 9 -300 2z m444
-996 c-6 -141 -9 -157 -52 -242 -45 -88 -127 -148 -235 -171 -159 -33 -275 2
-330 100 -22 40 -25 56 -23 114 2 39 9 72 16 76 6 4 11 10 10 14 -7 28 106
104 165 112 25 3 82 12 155 24 30 5 75 12 100 15 25 3 56 8 70 10 14 2 45 7
70 10 25 4 47 9 49 11 2 2 5 4 6 4 1 0 1 -35 -1 -77z"/>
<path d="M12180 8503 c-36 -8 -74 -16 -85 -18 -33 -8 -205 -96 -205 -106 0 -5
-6 -9 -12 -9 -30 0 -218 -206 -218 -238 0 -7 -4 -12 -8 -12 -4 0 -14 -16 -21
-35 -7 -19 -16 -35 -20 -35 -4 0 -8 -6 -9 -12 0 -7 -8 -33 -18 -58 -35 -94
-52 -209 -51 -345 1 -71 6 -136 10 -142 5 -7 6 -13 4 -13 -3 0 -1 -17 4 -37 5
-21 12 -49 15 -63 3 -14 17 -52 30 -85 14 -33 28 -68 31 -77 3 -10 9 -18 13
-18 4 0 11 -10 14 -22 3 -13 30 -52 59 -88 128 -158 301 -259 507 -297 75 -14
258 -8 349 11 131 28 289 117 375 212 67 75 145 209 149 258 2 23 -3 30 -23
37 -211 66 -292 91 -293 88 -2 -2 -14 -28 -27 -58 -35 -77 -122 -160 -196
-189 -174 -67 -360 -35 -493 84 -50 46 -109 135 -117 179 -3 16 -8 35 -12 44
-4 9 -8 32 -7 51 l0 35 592 0 593 0 8 25 c9 26 7 184 -2 254 -18 131 -64 268
-121 356 -39 61 -133 170 -146 170 -4 0 -19 10 -33 23 -29 27 -132 80 -196
101 -128 41 -322 54 -440 29z m210 -318 c12 8 100 -14 128 -31 12 -8 22 -12
22 -9 0 8 58 -33 86 -60 52 -50 104 -164 104 -227 l0 -28 -400 0 c-332 0 -400
2 -400 14 0 27 40 138 61 169 72 104 178 166 299 174 41 3 77 8 80 10 2 2 6
-1 8 -6 2 -6 8 -9 12 -6z"/>
<path d="M10488 8505 c-1 -1 -30 -5 -63 -9 -81 -8 -235 -57 -235 -75 0 -3 -13
-12 -29 -19 -31 -14 -105 -82 -131 -120 -8 -12 -17 -22 -20 -22 -3 0 -5 46 -5
102 l0 103 -187 2 -188 2 0 -1137 0 -1138 190 0 c126 0 190 3 193 10 2 6 3
190 3 409 l-1 397 38 -40 c114 -119 281 -180 479 -175 56 2 114 6 128 9 26 6
55 13 89 20 10 3 37 14 60 25 22 12 41 19 41 16 0 -3 20 8 44 25 25 16 48 30
53 30 5 0 16 8 24 18 9 9 31 31 50 47 19 17 54 55 77 85 23 30 47 61 52 68 6
6 7 12 3 12 -4 0 -3 4 2 8 15 10 89 172 80 172 -3 0 0 12 6 28 42 109 53 369
22 507 -10 47 -13 61 -17 81 -2 11 -11 37 -20 57 -8 21 -16 39 -16 42 -15 81
-200 325 -247 325 -7 0 -13 4 -13 9 0 5 -37 27 -82 49 -94 45 -132 57 -213 67
-58 7 -163 14 -167 10z m112 -369 c25 -9 63 -29 85 -43 48 -31 125 -112 125
-130 0 -7 3 -13 8 -13 8 0 46 -96 57 -145 14 -61 15 -72 16 -145 1 -173 -47
-307 -142 -401 -41 -40 -95 -78 -119 -84 -3 -1 -17 -7 -31 -12 -72 -30 -190
-31 -282 -3 -67 21 -141 71 -189 129 -31 36 -86 144 -92 181 -3 14 -5 25 -6
25 -11 0 -18 234 -8 280 8 37 42 140 47 145 3 3 15 21 25 40 24 44 104 123
148 146 99 52 259 65 358 30z"/>
</g>
</svg>
